<?xml version="1.0" encoding="UTF-8" standalone="no"?>
<svg xmlns:dc="http://purl.org/dc/elements/1.1/" 
   xmlns:cc="http://creativecommons.org/ns#" 
   xmlns:rdf="http://www.w3.org/1999/02/22-rdf-syntax-ns#" 
   xmlns:svg="http://www.w3.org/2000/svg" 
   xmlns="http://www.w3.org/2000/svg" id="svg3753" version="1.1" viewBox="0 0 100 100" height="100" width="100">
   <metadata id="metadata3759">
      <rdf:RDF>
         <cc:Work rdf:about="">
            <dc:format>image/svg+xml</dc:format>
            <dc:type rdf:resource="http://purl.org/dc/dcmitype/StillImage" />
            <dc:title></dc:title>
         </cc:Work>
      </rdf:RDF>
   </metadata>
   <defs id="defs3757" />
   <g transform="matrix(1.2686839,0,0,1.2686839,10,10)" data-name="Layer 2" id="g3745" style="fill:#000000">
      <g data-name="Layer 1" id="g3743">
         <path d="M 32,50.12 A 18.12,18.12 0 1 1 50.12,32 18.14,18.14 0 0 1 32,50.12 Z M 32,17.65 A 14.35,14.35 0 1 0 46.35,32 14.37,14.37 0 0 0 32,17.65 Z" id="path3739" />
         <path d="M 54.59,64 H 9.41 A 9.42,9.42 0 0 1 0,54.59 V 9.41 A 9.42,9.42 0 0 1 9.41,0 H 54.59 A 9.42,9.42 0 0 1 64,9.41 V 54.59 A 9.42,9.42 0 0 1 54.59,64 Z M 9.41,3.76 A 5.66,5.66 0 0 0 3.76,9.41 v 45.18 a 5.66,5.66 0 0 0 5.65,5.65 h 45.18 a 5.66,5.66 0 0 0 5.65,-5.65 V 9.41 A 5.66,5.66 0 0 0 54.59,3.76 Z" id="path3741" />
      </g>
   </g>
</svg>
